# xmcd CD database file
#
# Track frame offsets:
#	180
#	13959
#	27889
#	42039
#	56344
#	67645
#	80851
#	96109
#	111107
#	125475
#	141675
#	155541
#	169271
#	183989
#	196633
#	212687
#	226100
#	242029
#	257013
#	270282
#
# Disc length: 3786 seconds
#
# Revision: 0
# Processed by: cddbd v1.5.2PL0 Copyright (c) Steve Scherf et al.
# Submitted via: cdripper 1,0,39,0213
#
DISCID=0b0ec814
DTITLE=Jelly Roll Morton - New York 1928-1930
DYEAR=1999
DGENRE=Jazz
TTITLE0=Seargent Dunn's Bugle Call Blues
TTITLE1=Ham and Eggs
TTITLE2=Buffalo Blues
TTITLE3=You Need Some Lovin'
TTITLE4=Georgia Swing
TTITLE5=Kansas City Stomps
TTITLE6=Shoe Shiner's Drag
TTITLE7=BooGaBoo
TTITLE8=Red Hot Pepper
TTITLE9=Deep Creek - Blues
TTITLE10=Burnin' the Iceburg
TTITLE11=Courthouse Bump
TTITLE12=Pretty Lil
TTITLE13=Sweet Anita Mine
TTITLE14=New Orleans Bump
TTITLE15=Little Lawrence
TTITLE16=Harmony Blues
TTITLE17=Fussy Mabel
TTITLE18=Ponchatrain - Blues
TTITLE19=Blue Blood Blues
EXTD=YEAR: 1999
EXTT0=
EXTT1=
EXTT2=
EXTT3=
EXTT4=
EXTT5=
EXTT6=
EXTT7=
EXTT8=
EXTT9=
EXTT10=
EXTT11=
EXTT12=
EXTT13=
EXTT14=
EXTT15=
EXTT16=
EXTT17=
EXTT18=
EXTT19=
PLAYORDER=
